<svg width="18" height="19" viewBox="0 0 18 19" fill="none" xmlns="http://www.w3.org/2000/svg">
<path d="M9.91303 0.687256C10.913 0.689922 11.4205 0.695255 11.8587 0.707699L12.0311 0.713921C12.2302 0.721032 12.4267 0.72992 12.664 0.740586C13.6097 0.785029 14.255 0.934354 14.8212 1.1539C15.4079 1.37967 15.9021 1.68543 16.3963 2.17874C16.8482 2.62306 17.198 3.16054 17.4211 3.75377C17.6406 4.31996 17.79 4.96526 17.8344 5.91188C17.8451 6.14831 17.854 6.34474 17.8611 6.54473L17.8664 6.71717C17.8797 7.15448 17.8851 7.66201 17.8868 8.66196L17.8877 9.32504V10.4894C17.8899 11.1377 17.8831 11.7861 17.8673 12.4342L17.862 12.6066C17.8548 12.8066 17.846 13.0031 17.8353 13.2395C17.7908 14.1861 17.6397 14.8305 17.4211 15.3976C17.1986 15.9912 16.8488 16.5288 16.3963 16.9726C15.9518 17.4245 15.4144 17.7742 14.8212 17.9975C14.255 18.217 13.6097 18.3664 12.664 18.4108C12.4531 18.4207 12.2421 18.4296 12.0311 18.4375L11.8587 18.4428C11.4205 18.4552 10.913 18.4615 9.91303 18.4632L9.24995 18.4641H8.08646C7.43783 18.4664 6.78921 18.4595 6.14078 18.4437L5.96834 18.4383C5.75734 18.4304 5.54638 18.4212 5.33549 18.4108C4.38976 18.3664 3.74446 18.217 3.17737 17.9975C2.58422 17.7747 2.04696 17.4249 1.60323 16.9726C1.15085 16.5285 0.800806 15.991 0.577507 15.3976C0.357963 14.8314 0.208637 14.1861 0.164195 13.2395C0.154292 13.0286 0.145404 12.8176 0.13753 12.6066L0.133086 12.4342C0.116706 11.7861 0.109298 11.1378 0.110864 10.4894V8.66196C0.108384 8.01364 0.114903 7.36531 0.130419 6.71717L0.136641 6.54473C0.143752 6.34474 0.15264 6.14831 0.163306 5.91188C0.207748 4.96526 0.357074 4.32085 0.576618 3.75377C0.799819 3.15993 1.15056 2.62229 1.60412 2.17874C2.04774 1.72674 2.58464 1.37699 3.17737 1.1539C3.74446 0.934354 4.38887 0.785029 5.33549 0.740586C5.57192 0.72992 5.76924 0.721032 5.96834 0.713921L6.14078 0.708588C6.78892 0.692796 7.43724 0.685981 8.08557 0.688145L9.91303 0.687256ZM8.9993 5.13147C7.82062 5.13147 6.69022 5.5997 5.85676 6.43315C5.02331 7.26661 4.55508 8.39701 4.55508 9.57569C4.55508 10.7544 5.02331 11.8848 5.85676 12.7182C6.69022 13.5517 7.82062 14.0199 8.9993 14.0199C10.178 14.0199 11.3084 13.5517 12.1418 12.7182C12.9753 11.8848 13.4435 10.7544 13.4435 9.57569C13.4435 8.39701 12.9753 7.26661 12.1418 6.43315C11.3084 5.5997 10.178 5.13147 8.9993 5.13147ZM8.9993 6.90916C9.34947 6.9091 9.69623 6.97802 10.0198 7.11197C10.3433 7.24592 10.6373 7.44229 10.885 7.68986C11.1326 7.93742 11.3291 8.23135 11.4631 8.55484C11.5972 8.87834 11.6662 9.22507 11.6663 9.57525C11.6663 9.92542 11.5974 10.2722 11.4635 10.5957C11.3295 10.9193 11.1331 11.2132 10.8856 11.4609C10.638 11.7085 10.3441 11.905 10.0206 12.0391C9.69709 12.1731 9.35036 12.2422 9.00019 12.2422C8.29298 12.2422 7.61474 11.9613 7.11467 11.4612C6.61459 10.9611 6.33366 10.2829 6.33366 9.57569C6.33366 8.86848 6.61459 8.19024 7.11467 7.69017C7.61474 7.1901 8.29298 6.90916 9.00019 6.90916M13.6666 3.79821C13.3719 3.79821 13.0893 3.91527 12.881 4.12363C12.6726 4.33199 12.5556 4.61459 12.5556 4.90926C12.5556 5.20393 12.6726 5.48653 12.881 5.6949C13.0893 5.90326 13.3719 6.02032 13.6666 6.02032C13.9613 6.02032 14.2439 5.90326 14.4523 5.6949C14.6606 5.48653 14.7777 5.20393 14.7777 4.90926C14.7777 4.61459 14.6606 4.33199 14.4523 4.12363C14.2439 3.91527 13.9613 3.79821 13.6666 3.79821Z" fill="#6F69F2"/>
</svg>
