<svg width="18" height="17" viewBox="0 0 18 17" fill="none" xmlns="http://www.w3.org/2000/svg">
<path d="M3.86296 2.54808C3.86273 3.0119 3.67825 3.45664 3.35011 3.78445C3.02197 4.11227 2.57705 4.2963 2.11322 4.29607C1.6494 4.29583 1.20466 4.11136 0.876846 3.78322C0.549035 3.45508 0.365003 3.01016 0.365235 2.54633C0.365467 2.0825 0.549944 1.63776 0.878083 1.30995C1.20622 0.98214 1.65114 0.798108 2.11497 0.79834C2.5788 0.798572 3.02354 0.983049 3.35135 1.31119C3.67916 1.63933 3.86319 2.08425 3.86296 2.54808ZM3.91543 5.5911H0.4177V16.539H3.91543V5.5911ZM9.44184 5.5911H5.9616V16.539H9.40686V10.794C9.40686 7.59355 13.5779 7.29624 13.5779 10.794V16.539H17.0319V9.60474C17.0319 4.2095 10.8584 4.41062 9.40686 7.06014L9.44184 5.5911Z" fill="#6F69F2"/>
</svg>
