<svg width="12" height="16" viewBox="0 0 12 16" fill="none" xmlns="http://www.w3.org/2000/svg">
<path d="M11.5 5.37891C11.5 4.68947 11.3577 4.00678 11.0813 3.36982C10.8049 2.73286 10.3998 2.1541 9.88909 1.6666C9.37836 1.17909 8.77205 0.792376 8.10476 0.528539C7.43747 0.264701 6.72227 0.128906 6 0.128906C5.27773 0.128906 4.56253 0.264701 3.89524 0.528539C3.22795 0.792376 2.62163 1.17909 2.11091 1.6666C1.60019 2.1541 1.19506 2.73286 0.918662 3.36982C0.642262 4.00678 0.5 4.68947 0.5 5.37891C0.5 6.41916 0.821357 7.38666 1.36821 8.20266H1.36193L6 15.1289L10.6381 8.20266H10.6326C11.199 7.36009 11.5 6.38002 11.5 5.37891ZM6 7.62891C5.37485 7.62891 4.7753 7.39185 4.33325 6.9699C3.8912 6.54794 3.64286 5.97564 3.64286 5.37891C3.64286 4.78217 3.8912 4.20987 4.33325 3.78792C4.7753 3.36596 5.37485 3.12891 6 3.12891C6.62515 3.12891 7.2247 3.36596 7.66675 3.78792C8.1088 4.20987 8.35714 4.78217 8.35714 5.37891C8.35714 5.97564 8.1088 6.54794 7.66675 6.9699C7.2247 7.39185 6.62515 7.62891 6 7.62891Z" fill="#6F69F2"/>
</svg>
