<svg width="14" height="11" viewBox="0 0 14 11" fill="none" xmlns="http://www.w3.org/2000/svg">
<path d="M1.8 10.829C1.4425 10.829 1.13657 10.7018 0.8822 10.4474C0.627833 10.193 0.500433 9.88689 0.5 9.52895V1.72896C0.5 1.37146 0.6274 1.06552 0.8822 0.811155C1.137 0.556788 1.44293 0.429388 1.8 0.428955H12.2C12.5575 0.428955 12.8636 0.556355 13.1184 0.811155C13.3732 1.06595 13.5004 1.37189 13.5 1.72896V9.52895C13.5 9.88645 13.3728 10.1926 13.1184 10.4474C12.8641 10.7022 12.5579 10.8294 12.2 10.829H1.8ZM7 6.27895L12.2 3.02895V1.72896L7 4.97895L1.8 1.72896V3.02895L7 6.27895Z" fill="#6F69F2"/>
</svg>
