<svg width="17" height="21" viewBox="0 0 17 21" fill="none" xmlns="http://www.w3.org/2000/svg">
<path d="M3.68626 17.0306C3.46036 17.9891 3.43119 19.0467 3.46667 19.9276C3.46667 19.9276 4.29733 20.1117 4.87888 20.324C5.45684 19.4972 5.95807 18.7414 6.22557 17.7687C6.3807 17.2074 7.1131 14.3007 7.1131 14.3007C7.55199 15.137 8.83317 15.8732 10.1952 15.8732C14.2509 15.8732 17.0023 12.1759 17.0023 7.22693C17.0023 3.48548 13.8321 0 9.01551 0C3.02147 0 -0.000976562 4.29723 -0.000976562 7.88097C-0.000976562 10.0509 0.819932 11.9812 2.58258 12.7008C2.87136 12.8187 3.13028 12.7045 3.21425 12.385C3.27181 12.1635 3.41078 11.6047 3.4713 11.3726C3.55577 11.056 3.52334 10.9451 3.28995 10.6694C2.78236 10.0692 2.4583 9.29413 2.4583 8.19499C2.4583 5.00715 4.84237 2.15325 8.66927 2.15325C12.0565 2.15325 13.9188 4.22281 13.9188 6.98782C13.9188 10.6253 12.3089 13.6953 9.91862 13.6953C8.5984 13.6953 7.61132 12.6038 7.92741 11.2655C8.30578 9.66738 9.04153 7.94188 9.04153 6.78834C9.04153 5.75621 8.48713 4.8943 7.33959 4.8943C5.99011 4.8943 4.90653 6.29061 4.90653 8.1602C4.90653 9.3507 5.30955 10.1562 5.30955 10.1562C5.30955 10.1562 3.92882 16.0065 3.68626 17.0306Z" fill="#6F69F2"/>
<path d="M4.87888 20.324C4.29733 20.1117 3.46667 19.9276 3.46667 19.9276C3.50132 20.5004 4.18006 20.7904 4.65501 20.4683C4.73206 20.416 4.80742 20.3672 4.87888 20.324Z" fill="#6F69F2"/>
</svg>
