<svg width="14" height="15" viewBox="0 0 14 15" fill="none" xmlns="http://www.w3.org/2000/svg">
<path d="M7 0.963867C3.425 0.963867 0.5 3.62988 0.5 6.88835C0.5 8.44352 1.15 9.92464 2.32 10.9614C2.32 11.4058 2.06 12.5907 0.5 14.2939C0.5 14.2939 2.775 14.2939 4.725 12.4425C5.44 12.6647 6.22 12.8128 7 12.8128C10.575 12.8128 13.5 10.1468 13.5 6.88835C13.5 3.62988 10.575 0.963867 7 0.963867ZM7.65 9.85059H6.35V8.36947H7.65V9.85059ZM8.82 6.14779C8.625 6.44401 8.365 6.59212 8.105 6.74023C7.91 6.88835 7.845 6.9624 7.78 7.11051C7.65 7.25863 7.65 7.40674 7.65 7.62891H6.35C6.35 7.25863 6.415 7.03646 6.545 6.81429C6.675 6.66618 6.935 6.44401 7.26 6.22184C7.455 6.14779 7.585 5.99967 7.65 5.85156C7.715 5.70345 7.78 5.48128 7.78 5.33317C7.78 5.111 7.715 4.96289 7.585 4.81478C7.455 4.66667 7.26 4.59261 7.065 4.59261C6.87 4.59261 6.74 4.66667 6.61 4.74072C6.48 4.81478 6.415 4.96289 6.415 5.18506H5.115C5.18 4.66667 5.375 4.22233 5.7 3.92611C6.025 3.62988 6.48 3.55583 7.065 3.55583C7.65 3.55583 8.17 3.70394 8.495 4.00016C8.82 4.29639 9.015 4.74072 9.015 5.25911C9.08 5.55534 9.015 5.85156 8.82 6.14779Z" fill="#6F69F2"/>
</svg>
