<svg width="14" height="16" viewBox="0 0 14 16" fill="none" xmlns="http://www.w3.org/2000/svg">
<path d="M11.1071 2.50667C10.4968 1.813 10.1605 0.922162 10.1607 0H7.40179V11.0222C7.38051 11.6187 7.12756 12.1837 6.69622 12.5982C6.26487 13.0127 5.68879 13.2444 5.08929 13.2444C3.82143 13.2444 2.76786 12.2133 2.76786 10.9333C2.76786 9.40444 4.25 8.25778 5.77679 8.72889V5.92C2.69643 5.51111 0 7.89333 0 10.9333C0 13.8933 2.46429 16 5.08036 16C7.88393 16 10.1607 13.7333 10.1607 10.9333V5.34222C11.2795 6.14209 12.6226 6.57124 14 6.56889V3.82222C14 3.82222 12.3214 3.90222 11.1071 2.50667Z" fill="#6F69F2"/>
</svg>
