<svg width="19" height="13" viewBox="0 0 19 13" fill="none" xmlns="http://www.w3.org/2000/svg">
<path d="M7.99978 8.90952L12.6131 6.24285L7.99978 3.57619V8.90952ZM18.2753 1.94952C18.3909 2.3673 18.4709 2.9273 18.5242 3.63841C18.5865 4.34952 18.6131 4.96285 18.6131 5.49619L18.6665 6.24285C18.6665 8.18952 18.5242 9.62063 18.2753 10.5362C18.0531 11.3362 17.5376 11.8517 16.7376 12.074C16.3198 12.1895 15.5553 12.2695 14.382 12.3229C13.2265 12.3851 12.1687 12.4117 11.1909 12.4117L9.77756 12.4651C6.05312 12.4651 3.73312 12.3229 2.81756 12.074C2.01756 11.8517 1.50201 11.3362 1.27978 10.5362C1.16423 10.1184 1.08423 9.55841 1.03089 8.8473C0.968672 8.13619 0.942005 7.52285 0.942005 6.98952L0.888672 6.24285C0.888672 4.29619 1.03089 2.86507 1.27978 1.94952C1.50201 1.14952 2.01756 0.633963 2.81756 0.411741C3.23534 0.296185 3.99978 0.216185 5.17312 0.162852C6.32867 0.10063 7.38645 0.0739632 8.36423 0.0739632L9.77756 0.0206299C13.502 0.0206299 15.822 0.162852 16.7376 0.411741C17.5376 0.633963 18.0531 1.14952 18.2753 1.94952Z" fill="#6F69F2"/>
</svg>
